<mxfile host="app.diagrams.net" modified="2023-03-10T01:58:07.722Z" agent="5.0 (Windows NT 10.0; Win64; x64) AppleWebKit/537.36 (KHTML, like Gecko) Chrome/96.0.4664.45 Safari/537.36" etag="RVZzTtlLrXNzFNIJRn8i" version="21.0.4" type="github" pages="2">
  <diagram name="第 1 页" id="IMjAlpp3Ztoz9SvU_dgs">
    <mxGraphModel dx="1006" dy="516" grid="1" gridSize="10" guides="1" tooltips="1" connect="1" arrows="1" fold="1" page="1" pageScale="1" pageWidth="1200" pageHeight="1920" math="0" shadow="0">
      <root>
        <mxCell id="0" />
        <mxCell id="1" parent="0" />
        <mxCell id="INxmrjbLJUZYRgkc83wa-1" value="" style="rounded=0;whiteSpace=wrap;html=1;fillColor=#ffcd28;gradientColor=#ffa500;strokeColor=#d79b00;" parent="1" vertex="1">
          <mxGeometry x="80" y="570" width="730" height="160" as="geometry" />
        </mxCell>
        <mxCell id="INxmrjbLJUZYRgkc83wa-2" value="" style="rounded=0;whiteSpace=wrap;html=1;fillColor=#dae8fc;strokeColor=#6c8ebf;gradientColor=#7ea6e0;" parent="1" vertex="1">
          <mxGeometry x="87.5" y="135" width="730" height="210" as="geometry" />
        </mxCell>
        <mxCell id="INxmrjbLJUZYRgkc83wa-3" value="" style="rounded=0;whiteSpace=wrap;html=1;fillColor=#f8cecc;gradientColor=#ea6b66;strokeColor=#b85450;gradientDirection=south;" parent="1" vertex="1">
          <mxGeometry x="87.5" y="370" width="730" height="180" as="geometry" />
        </mxCell>
        <mxCell id="INxmrjbLJUZYRgkc83wa-5" value="" style="rounded=1;whiteSpace=wrap;html=1;fillColor=#fff2cc;gradientColor=#ffd966;strokeColor=#d6b656;" parent="1" vertex="1">
          <mxGeometry x="130" y="630" width="660" height="40" as="geometry" />
        </mxCell>
        <mxCell id="INxmrjbLJUZYRgkc83wa-6" value="" style="rounded=1;whiteSpace=wrap;html=1;fillColor=#d5e8d4;gradientColor=#97d077;strokeColor=#82b366;" parent="1" vertex="1">
          <mxGeometry x="130" y="680" width="660" height="40" as="geometry" />
        </mxCell>
        <mxCell id="INxmrjbLJUZYRgkc83wa-8" value="" style="rounded=1;whiteSpace=wrap;html=1;fillColor=#ffcccc;strokeColor=#36393d;" parent="1" vertex="1">
          <mxGeometry x="130" y="580" width="660" height="40" as="geometry" />
        </mxCell>
        <mxCell id="INxmrjbLJUZYRgkc83wa-9" value="" style="rounded=1;whiteSpace=wrap;html=1;fillColor=#eeeeee;strokeColor=#36393d;" parent="1" vertex="1">
          <mxGeometry x="130" y="147.5" width="670" height="185" as="geometry" />
        </mxCell>
        <mxCell id="INxmrjbLJUZYRgkc83wa-10" value="" style="rounded=1;whiteSpace=wrap;html=1;fillColor=#d0cee2;strokeColor=#56517e;" parent="1" vertex="1">
          <mxGeometry x="137.5" y="390" width="660" height="40" as="geometry" />
        </mxCell>
        <mxCell id="INxmrjbLJUZYRgkc83wa-11" value="" style="rounded=1;whiteSpace=wrap;html=1;fillColor=#cce5ff;strokeColor=#36393d;" parent="1" vertex="1">
          <mxGeometry x="137.5" y="440" width="660" height="40" as="geometry" />
        </mxCell>
        <mxCell id="INxmrjbLJUZYRgkc83wa-12" value="" style="rounded=1;whiteSpace=wrap;html=1;fillColor=#b0e3e6;strokeColor=#0e8088;" parent="1" vertex="1">
          <mxGeometry x="137.5" y="490" width="660" height="40" as="geometry" />
        </mxCell>
        <mxCell id="INxmrjbLJUZYRgkc83wa-13" value="数据资源中心" style="text;html=1;strokeColor=none;fillColor=none;align=center;verticalAlign=middle;whiteSpace=wrap;rounded=0;fontSize=18;" parent="1" vertex="1">
          <mxGeometry x="100" y="582.5" width="10" height="135" as="geometry" />
        </mxCell>
        <mxCell id="INxmrjbLJUZYRgkc83wa-14" value="database" style="rounded=1;whiteSpace=wrap;html=1;" parent="1" vertex="1">
          <mxGeometry x="310" y="685" width="70" height="30" as="geometry" />
        </mxCell>
        <mxCell id="INxmrjbLJUZYRgkc83wa-15" value="bigdata" style="rounded=1;whiteSpace=wrap;html=1;" parent="1" vertex="1">
          <mxGeometry x="450" y="685" width="70" height="30" as="geometry" />
        </mxCell>
        <mxCell id="INxmrjbLJUZYRgkc83wa-16" value="elasticserch" style="rounded=1;whiteSpace=wrap;html=1;" parent="1" vertex="1">
          <mxGeometry x="600" y="685" width="70" height="30" as="geometry" />
        </mxCell>
        <mxCell id="INxmrjbLJUZYRgkc83wa-17" value="数据&lt;br style=&quot;font-size: 16px;&quot;&gt;存储" style="text;html=1;strokeColor=none;fillColor=none;align=center;verticalAlign=middle;whiteSpace=wrap;rounded=0;fontSize=16;" parent="1" vertex="1">
          <mxGeometry x="140" y="685" width="40" height="30" as="geometry" />
        </mxCell>
        <mxCell id="INxmrjbLJUZYRgkc83wa-18" value="数据&lt;br style=&quot;font-size: 16px;&quot;&gt;接口" style="text;html=1;strokeColor=none;fillColor=none;align=center;verticalAlign=middle;whiteSpace=wrap;rounded=0;fontSize=16;" parent="1" vertex="1">
          <mxGeometry x="140" y="635" width="40" height="30" as="geometry" />
        </mxCell>
        <mxCell id="INxmrjbLJUZYRgkc83wa-19" value="数据处理" style="rounded=1;whiteSpace=wrap;html=1;" parent="1" vertex="1">
          <mxGeometry x="310" y="635" width="70" height="30" as="geometry" />
        </mxCell>
        <mxCell id="INxmrjbLJUZYRgkc83wa-20" value="数据查询" style="rounded=1;whiteSpace=wrap;html=1;" parent="1" vertex="1">
          <mxGeometry x="450" y="635" width="70" height="30" as="geometry" />
        </mxCell>
        <mxCell id="INxmrjbLJUZYRgkc83wa-21" value="数据安全" style="rounded=1;whiteSpace=wrap;html=1;" parent="1" vertex="1">
          <mxGeometry x="600" y="635" width="70" height="30" as="geometry" />
        </mxCell>
        <mxCell id="INxmrjbLJUZYRgkc83wa-22" value="资源管理" style="text;html=1;strokeColor=none;fillColor=none;align=center;verticalAlign=middle;whiteSpace=wrap;rounded=0;fontSize=16;" parent="1" vertex="1">
          <mxGeometry x="140" y="585" width="40" height="30" as="geometry" />
        </mxCell>
        <mxCell id="INxmrjbLJUZYRgkc83wa-23" value="数据交易中心" style="text;html=1;strokeColor=none;fillColor=none;align=center;verticalAlign=middle;whiteSpace=wrap;rounded=0;fontSize=18;" parent="1" vertex="1">
          <mxGeometry x="110" y="155" width="10" height="135" as="geometry" />
        </mxCell>
        <mxCell id="INxmrjbLJUZYRgkc83wa-24" value="信息展示" style="text;html=1;strokeColor=none;fillColor=none;align=center;verticalAlign=middle;whiteSpace=wrap;rounded=0;fontSize=16;" parent="1" vertex="1">
          <mxGeometry x="150" y="160" width="40" height="30" as="geometry" />
        </mxCell>
        <mxCell id="INxmrjbLJUZYRgkc83wa-25" value="首页" style="rounded=1;whiteSpace=wrap;html=1;" parent="1" vertex="1">
          <mxGeometry x="150" y="215" width="70" height="30" as="geometry" />
        </mxCell>
        <mxCell id="4gfEWDUkYX4_bbBAS9TJ-1" value="" style="group" vertex="1" connectable="0" parent="1">
          <mxGeometry x="230" y="160" width="80" height="160" as="geometry" />
        </mxCell>
        <mxCell id="ddeVs8B9BQJQFKg9lVX4-2" value="" style="rounded=0;whiteSpace=wrap;html=1;fillColor=#d5e8d4;strokeColor=#006900;dashed=1;" parent="4gfEWDUkYX4_bbBAS9TJ-1" vertex="1">
          <mxGeometry width="80" height="160" as="geometry" />
        </mxCell>
        <mxCell id="INxmrjbLJUZYRgkc83wa-26" value="客户管理" style="rounded=1;whiteSpace=wrap;html=1;" parent="4gfEWDUkYX4_bbBAS9TJ-1" vertex="1">
          <mxGeometry x="5" y="10" width="70" height="30" as="geometry" />
        </mxCell>
        <mxCell id="INxmrjbLJUZYRgkc83wa-66" value="" style="group" parent="4gfEWDUkYX4_bbBAS9TJ-1" vertex="1" connectable="0">
          <mxGeometry x="10" y="60" width="60" height="80" as="geometry" />
        </mxCell>
        <mxCell id="INxmrjbLJUZYRgkc83wa-35" value="客户档案" style="rounded=0;whiteSpace=wrap;html=1;" parent="INxmrjbLJUZYRgkc83wa-66" vertex="1">
          <mxGeometry width="60" height="20" as="geometry" />
        </mxCell>
        <mxCell id="INxmrjbLJUZYRgkc83wa-36" value="合作申请" style="rounded=0;whiteSpace=wrap;html=1;" parent="INxmrjbLJUZYRgkc83wa-66" vertex="1">
          <mxGeometry y="20" width="60" height="20" as="geometry" />
        </mxCell>
        <mxCell id="INxmrjbLJUZYRgkc83wa-37" value="合作审批" style="rounded=0;whiteSpace=wrap;html=1;" parent="INxmrjbLJUZYRgkc83wa-66" vertex="1">
          <mxGeometry y="40" width="60" height="20" as="geometry" />
        </mxCell>
        <mxCell id="INxmrjbLJUZYRgkc83wa-38" value="合作上链" style="rounded=0;whiteSpace=wrap;html=1;" parent="INxmrjbLJUZYRgkc83wa-66" vertex="1">
          <mxGeometry y="60" width="60" height="20" as="geometry" />
        </mxCell>
        <mxCell id="4gfEWDUkYX4_bbBAS9TJ-2" value="" style="group" vertex="1" connectable="0" parent="1">
          <mxGeometry x="320" y="160" width="80" height="160" as="geometry" />
        </mxCell>
        <mxCell id="ddeVs8B9BQJQFKg9lVX4-3" value="" style="rounded=0;whiteSpace=wrap;html=1;fillColor=#dae8fc;strokeColor=#6c8ebf;dashed=1;" parent="4gfEWDUkYX4_bbBAS9TJ-2" vertex="1">
          <mxGeometry width="80" height="160" as="geometry" />
        </mxCell>
        <mxCell id="INxmrjbLJUZYRgkc83wa-27" value="产品管理" style="rounded=1;whiteSpace=wrap;html=1;" parent="4gfEWDUkYX4_bbBAS9TJ-2" vertex="1">
          <mxGeometry x="5" y="10" width="70" height="30" as="geometry" />
        </mxCell>
        <mxCell id="INxmrjbLJUZYRgkc83wa-67" value="" style="group" parent="4gfEWDUkYX4_bbBAS9TJ-2" vertex="1" connectable="0">
          <mxGeometry x="10" y="65" width="60" height="80" as="geometry" />
        </mxCell>
        <mxCell id="INxmrjbLJUZYRgkc83wa-39" value="产品管理" style="rounded=0;whiteSpace=wrap;html=1;" parent="INxmrjbLJUZYRgkc83wa-67" vertex="1">
          <mxGeometry width="60" height="20" as="geometry" />
        </mxCell>
        <mxCell id="INxmrjbLJUZYRgkc83wa-40" value="产品上线" style="rounded=0;whiteSpace=wrap;html=1;" parent="INxmrjbLJUZYRgkc83wa-67" vertex="1">
          <mxGeometry y="20" width="60" height="20" as="geometry" />
        </mxCell>
        <mxCell id="INxmrjbLJUZYRgkc83wa-41" value="产品标签" style="rounded=0;whiteSpace=wrap;html=1;" parent="INxmrjbLJUZYRgkc83wa-67" vertex="1">
          <mxGeometry y="40" width="60" height="20" as="geometry" />
        </mxCell>
        <mxCell id="INxmrjbLJUZYRgkc83wa-42" value="产品分类" style="rounded=0;whiteSpace=wrap;html=1;" parent="INxmrjbLJUZYRgkc83wa-67" vertex="1">
          <mxGeometry y="60" width="60" height="20" as="geometry" />
        </mxCell>
        <mxCell id="4gfEWDUkYX4_bbBAS9TJ-3" value="" style="group" vertex="1" connectable="0" parent="1">
          <mxGeometry x="410" y="160" width="85" height="160" as="geometry" />
        </mxCell>
        <mxCell id="ddeVs8B9BQJQFKg9lVX4-6" value="" style="rounded=0;whiteSpace=wrap;html=1;fillColor=#ffe6cc;strokeColor=#d79b00;dashed=1;" parent="4gfEWDUkYX4_bbBAS9TJ-3" vertex="1">
          <mxGeometry width="85" height="160" as="geometry" />
        </mxCell>
        <mxCell id="INxmrjbLJUZYRgkc83wa-28" value="需求管理" style="rounded=1;whiteSpace=wrap;html=1;" parent="4gfEWDUkYX4_bbBAS9TJ-3" vertex="1">
          <mxGeometry x="7.5" y="10" width="70" height="30" as="geometry" />
        </mxCell>
        <mxCell id="INxmrjbLJUZYRgkc83wa-43" value="需求管理" style="rounded=0;whiteSpace=wrap;html=1;container=0;" parent="4gfEWDUkYX4_bbBAS9TJ-3" vertex="1">
          <mxGeometry x="12.5" y="65" width="60" height="20" as="geometry" />
        </mxCell>
        <mxCell id="INxmrjbLJUZYRgkc83wa-44" value="需求申请" style="rounded=0;whiteSpace=wrap;html=1;container=0;" parent="4gfEWDUkYX4_bbBAS9TJ-3" vertex="1">
          <mxGeometry x="12.5" y="85" width="60" height="20" as="geometry" />
        </mxCell>
        <mxCell id="INxmrjbLJUZYRgkc83wa-46" value="需求开发" style="rounded=0;whiteSpace=wrap;html=1;container=0;" parent="4gfEWDUkYX4_bbBAS9TJ-3" vertex="1">
          <mxGeometry x="12.5" y="125" width="60" height="20" as="geometry" />
        </mxCell>
        <mxCell id="INxmrjbLJUZYRgkc83wa-60" value="需求审批" style="rounded=0;whiteSpace=wrap;html=1;container=0;" parent="4gfEWDUkYX4_bbBAS9TJ-3" vertex="1">
          <mxGeometry x="12.5" y="105" width="60" height="20" as="geometry" />
        </mxCell>
        <mxCell id="4gfEWDUkYX4_bbBAS9TJ-4" value="" style="group" vertex="1" connectable="0" parent="1">
          <mxGeometry x="504" y="160" width="85" height="160" as="geometry" />
        </mxCell>
        <mxCell id="ddeVs8B9BQJQFKg9lVX4-8" value="" style="rounded=0;whiteSpace=wrap;html=1;fillColor=#f8cecc;strokeColor=#b85450;dashed=1;" parent="4gfEWDUkYX4_bbBAS9TJ-4" vertex="1">
          <mxGeometry width="85" height="160" as="geometry" />
        </mxCell>
        <mxCell id="INxmrjbLJUZYRgkc83wa-29" value="交易管理" style="rounded=1;whiteSpace=wrap;html=1;" parent="4gfEWDUkYX4_bbBAS9TJ-4" vertex="1">
          <mxGeometry x="7.5" y="10" width="70" height="30" as="geometry" />
        </mxCell>
        <mxCell id="INxmrjbLJUZYRgkc83wa-47" value="产品订购" style="rounded=0;whiteSpace=wrap;html=1;container=0;" parent="4gfEWDUkYX4_bbBAS9TJ-4" vertex="1">
          <mxGeometry x="12.5" y="55" width="60" height="20" as="geometry" />
        </mxCell>
        <mxCell id="INxmrjbLJUZYRgkc83wa-48" value="订购审批" style="rounded=0;whiteSpace=wrap;html=1;container=0;" parent="4gfEWDUkYX4_bbBAS9TJ-4" vertex="1">
          <mxGeometry x="12.5" y="75" width="60" height="20" as="geometry" />
        </mxCell>
        <mxCell id="INxmrjbLJUZYRgkc83wa-49" value="产品定价" style="rounded=0;whiteSpace=wrap;html=1;container=0;" parent="4gfEWDUkYX4_bbBAS9TJ-4" vertex="1">
          <mxGeometry x="12.5" y="95" width="60" height="20" as="geometry" />
        </mxCell>
        <mxCell id="INxmrjbLJUZYRgkc83wa-50" value="交易核算" style="rounded=0;whiteSpace=wrap;html=1;container=0;" parent="4gfEWDUkYX4_bbBAS9TJ-4" vertex="1">
          <mxGeometry x="12.5" y="115" width="60" height="20" as="geometry" />
        </mxCell>
        <mxCell id="INxmrjbLJUZYRgkc83wa-62" value="交易对账" style="rounded=0;whiteSpace=wrap;html=1;container=0;" parent="4gfEWDUkYX4_bbBAS9TJ-4" vertex="1">
          <mxGeometry x="12.5" y="135" width="60" height="20" as="geometry" />
        </mxCell>
        <mxCell id="4gfEWDUkYX4_bbBAS9TJ-5" value="" style="group" vertex="1" connectable="0" parent="1">
          <mxGeometry x="600" y="160" width="85" height="160" as="geometry" />
        </mxCell>
        <mxCell id="ddeVs8B9BQJQFKg9lVX4-9" value="" style="rounded=0;whiteSpace=wrap;html=1;fillColor=#fff2cc;strokeColor=#d6b656;dashed=1;" parent="4gfEWDUkYX4_bbBAS9TJ-5" vertex="1">
          <mxGeometry width="85" height="160" as="geometry" />
        </mxCell>
        <mxCell id="INxmrjbLJUZYRgkc83wa-30" value="统计分析" style="rounded=1;whiteSpace=wrap;html=1;" parent="4gfEWDUkYX4_bbBAS9TJ-5" vertex="1">
          <mxGeometry x="7.5" y="10" width="70" height="30" as="geometry" />
        </mxCell>
        <mxCell id="INxmrjbLJUZYRgkc83wa-51" value="产品统计分析" style="rounded=0;whiteSpace=wrap;html=1;container=0;" parent="4gfEWDUkYX4_bbBAS9TJ-5" vertex="1">
          <mxGeometry x="12.5" y="60" width="60" height="35" as="geometry" />
        </mxCell>
        <mxCell id="INxmrjbLJUZYRgkc83wa-52" value="需求统计分析" style="rounded=0;whiteSpace=wrap;html=1;container=0;" parent="4gfEWDUkYX4_bbBAS9TJ-5" vertex="1">
          <mxGeometry x="12.5" y="95" width="60" height="30" as="geometry" />
        </mxCell>
        <mxCell id="INxmrjbLJUZYRgkc83wa-53" value="交易统计分析" style="rounded=0;whiteSpace=wrap;html=1;container=0;" parent="4gfEWDUkYX4_bbBAS9TJ-5" vertex="1">
          <mxGeometry x="12.5" y="125" width="60" height="30" as="geometry" />
        </mxCell>
        <mxCell id="4gfEWDUkYX4_bbBAS9TJ-6" value="" style="group" vertex="1" connectable="0" parent="1">
          <mxGeometry x="695" y="160" width="85" height="160" as="geometry" />
        </mxCell>
        <mxCell id="ddeVs8B9BQJQFKg9lVX4-10" value="" style="rounded=0;whiteSpace=wrap;html=1;fillColor=#e1d5e7;strokeColor=#9673a6;dashed=1;" parent="4gfEWDUkYX4_bbBAS9TJ-6" vertex="1">
          <mxGeometry width="85" height="160" as="geometry" />
        </mxCell>
        <mxCell id="INxmrjbLJUZYRgkc83wa-31" value="系统管理" style="rounded=1;whiteSpace=wrap;html=1;" parent="4gfEWDUkYX4_bbBAS9TJ-6" vertex="1">
          <mxGeometry x="7.5" y="10" width="70" height="30" as="geometry" />
        </mxCell>
        <mxCell id="INxmrjbLJUZYRgkc83wa-55" value="用户管理" style="rounded=0;whiteSpace=wrap;html=1;container=0;" parent="4gfEWDUkYX4_bbBAS9TJ-6" vertex="1">
          <mxGeometry x="12.5" y="55" width="60" height="20" as="geometry" />
        </mxCell>
        <mxCell id="INxmrjbLJUZYRgkc83wa-56" value="菜单管理" style="rounded=0;whiteSpace=wrap;html=1;container=0;" parent="4gfEWDUkYX4_bbBAS9TJ-6" vertex="1">
          <mxGeometry x="12.5" y="75" width="60" height="20" as="geometry" />
        </mxCell>
        <mxCell id="INxmrjbLJUZYRgkc83wa-57" value="角色管理" style="rounded=0;whiteSpace=wrap;html=1;container=0;" parent="4gfEWDUkYX4_bbBAS9TJ-6" vertex="1">
          <mxGeometry x="12.5" y="95" width="60" height="20" as="geometry" />
        </mxCell>
        <mxCell id="INxmrjbLJUZYRgkc83wa-58" value="权限管理" style="rounded=0;whiteSpace=wrap;html=1;container=0;" parent="4gfEWDUkYX4_bbBAS9TJ-6" vertex="1">
          <mxGeometry x="12.5" y="115" width="60" height="20" as="geometry" />
        </mxCell>
        <mxCell id="INxmrjbLJUZYRgkc83wa-63" value="日志管理" style="rounded=0;whiteSpace=wrap;html=1;container=0;" parent="4gfEWDUkYX4_bbBAS9TJ-6" vertex="1">
          <mxGeometry x="12.5" y="135" width="60" height="20" as="geometry" />
        </mxCell>
        <mxCell id="4gfEWDUkYX4_bbBAS9TJ-8" value="区块链" style="text;html=1;strokeColor=none;fillColor=none;align=center;verticalAlign=middle;whiteSpace=wrap;rounded=0;fontSize=16;" vertex="1" parent="1">
          <mxGeometry x="140" y="395" width="40" height="30" as="geometry" />
        </mxCell>
        <mxCell id="4gfEWDUkYX4_bbBAS9TJ-9" value="智能合约" style="rounded=1;whiteSpace=wrap;html=1;" vertex="1" parent="1">
          <mxGeometry x="250" y="395" width="70" height="30" as="geometry" />
        </mxCell>
        <mxCell id="4gfEWDUkYX4_bbBAS9TJ-10" value="可信账本" style="rounded=1;whiteSpace=wrap;html=1;" vertex="1" parent="1">
          <mxGeometry x="350" y="395" width="70" height="30" as="geometry" />
        </mxCell>
        <mxCell id="4gfEWDUkYX4_bbBAS9TJ-11" value="隐私计算" style="text;html=1;strokeColor=none;fillColor=none;align=center;verticalAlign=middle;whiteSpace=wrap;rounded=0;fontSize=16;" vertex="1" parent="1">
          <mxGeometry x="140" y="445" width="40" height="30" as="geometry" />
        </mxCell>
        <mxCell id="4gfEWDUkYX4_bbBAS9TJ-12" value="联邦学习" style="rounded=1;whiteSpace=wrap;html=1;" vertex="1" parent="1">
          <mxGeometry x="250" y="445" width="70" height="30" as="geometry" />
        </mxCell>
        <mxCell id="4gfEWDUkYX4_bbBAS9TJ-13" value="隐私求交" style="rounded=1;whiteSpace=wrap;html=1;" vertex="1" parent="1">
          <mxGeometry x="350" y="445" width="70" height="30" as="geometry" />
        </mxCell>
        <mxCell id="4gfEWDUkYX4_bbBAS9TJ-15" value="同态加密" style="rounded=1;whiteSpace=wrap;html=1;" vertex="1" parent="1">
          <mxGeometry x="450" y="445" width="70" height="30" as="geometry" />
        </mxCell>
        <mxCell id="4gfEWDUkYX4_bbBAS9TJ-16" value="零知识证明" style="rounded=1;whiteSpace=wrap;html=1;" vertex="1" parent="1">
          <mxGeometry x="550" y="445" width="70" height="30" as="geometry" />
        </mxCell>
        <mxCell id="4gfEWDUkYX4_bbBAS9TJ-18" value="数据上链" style="rounded=1;whiteSpace=wrap;html=1;" vertex="1" parent="1">
          <mxGeometry x="450" y="395" width="70" height="30" as="geometry" />
        </mxCell>
        <mxCell id="4gfEWDUkYX4_bbBAS9TJ-19" value="数据朔源" style="rounded=1;whiteSpace=wrap;html=1;" vertex="1" parent="1">
          <mxGeometry x="540" y="395" width="70" height="30" as="geometry" />
        </mxCell>
        <mxCell id="4gfEWDUkYX4_bbBAS9TJ-20" value="去中心化" style="rounded=1;whiteSpace=wrap;html=1;" vertex="1" parent="1">
          <mxGeometry x="640" y="395" width="70" height="30" as="geometry" />
        </mxCell>
      </root>
    </mxGraphModel>
  </diagram>
  <diagram id="zGGw1NF_eNcXWLHDansu" name="第 2 页">
    <mxGraphModel dx="1006" dy="516" grid="1" gridSize="10" guides="1" tooltips="1" connect="1" arrows="1" fold="1" page="1" pageScale="1" pageWidth="1200" pageHeight="1920" math="0" shadow="0">
      <root>
        <mxCell id="0" />
        <mxCell id="1" parent="0" />
        <mxCell id="nuo62m4rXIHfGUCH9iXI-1" value="" style="rounded=0;whiteSpace=wrap;html=1;fillColor=#ffcd28;gradientColor=#ffa500;strokeColor=#d79b00;" vertex="1" parent="1">
          <mxGeometry x="80" y="570" width="730" height="160" as="geometry" />
        </mxCell>
        <mxCell id="nuo62m4rXIHfGUCH9iXI-2" value="" style="rounded=0;whiteSpace=wrap;html=1;fillColor=#dae8fc;strokeColor=#6c8ebf;gradientColor=#7ea6e0;" vertex="1" parent="1">
          <mxGeometry x="87.5" y="135" width="730" height="210" as="geometry" />
        </mxCell>
        <mxCell id="nuo62m4rXIHfGUCH9iXI-3" value="" style="rounded=0;whiteSpace=wrap;html=1;fillColor=#f8cecc;gradientColor=#ea6b66;strokeColor=#b85450;gradientDirection=south;" vertex="1" parent="1">
          <mxGeometry x="87.5" y="370" width="730" height="180" as="geometry" />
        </mxCell>
        <mxCell id="nuo62m4rXIHfGUCH9iXI-4" value="" style="rounded=1;whiteSpace=wrap;html=1;fillColor=#fff2cc;gradientColor=#ffd966;strokeColor=#d6b656;" vertex="1" parent="1">
          <mxGeometry x="130" y="630" width="660" height="40" as="geometry" />
        </mxCell>
        <mxCell id="nuo62m4rXIHfGUCH9iXI-5" value="" style="rounded=1;whiteSpace=wrap;html=1;fillColor=#d5e8d4;gradientColor=#97d077;strokeColor=#82b366;" vertex="1" parent="1">
          <mxGeometry x="130" y="680" width="660" height="40" as="geometry" />
        </mxCell>
        <mxCell id="nuo62m4rXIHfGUCH9iXI-6" value="" style="rounded=1;whiteSpace=wrap;html=1;fillColor=#ffcccc;strokeColor=#36393d;" vertex="1" parent="1">
          <mxGeometry x="130" y="580" width="660" height="40" as="geometry" />
        </mxCell>
        <mxCell id="nuo62m4rXIHfGUCH9iXI-7" value="" style="rounded=1;whiteSpace=wrap;html=1;fillColor=#eeeeee;strokeColor=#36393d;" vertex="1" parent="1">
          <mxGeometry x="130" y="147.5" width="670" height="185" as="geometry" />
        </mxCell>
        <mxCell id="nuo62m4rXIHfGUCH9iXI-8" value="" style="rounded=1;whiteSpace=wrap;html=1;fillColor=#d0cee2;strokeColor=#56517e;" vertex="1" parent="1">
          <mxGeometry x="137.5" y="390" width="660" height="40" as="geometry" />
        </mxCell>
        <mxCell id="nuo62m4rXIHfGUCH9iXI-9" value="" style="rounded=1;whiteSpace=wrap;html=1;fillColor=#cce5ff;strokeColor=#36393d;" vertex="1" parent="1">
          <mxGeometry x="137.5" y="440" width="660" height="40" as="geometry" />
        </mxCell>
        <mxCell id="nuo62m4rXIHfGUCH9iXI-10" value="" style="rounded=1;whiteSpace=wrap;html=1;fillColor=#b0e3e6;strokeColor=#0e8088;" vertex="1" parent="1">
          <mxGeometry x="137.5" y="490" width="660" height="40" as="geometry" />
        </mxCell>
        <mxCell id="nuo62m4rXIHfGUCH9iXI-11" value="数据资源中心" style="text;html=1;strokeColor=none;fillColor=none;align=center;verticalAlign=middle;whiteSpace=wrap;rounded=0;fontSize=18;" vertex="1" parent="1">
          <mxGeometry x="100" y="582.5" width="10" height="135" as="geometry" />
        </mxCell>
        <mxCell id="nuo62m4rXIHfGUCH9iXI-12" value="database" style="rounded=1;whiteSpace=wrap;html=1;" vertex="1" parent="1">
          <mxGeometry x="310" y="685" width="70" height="30" as="geometry" />
        </mxCell>
        <mxCell id="nuo62m4rXIHfGUCH9iXI-13" value="bigdata" style="rounded=1;whiteSpace=wrap;html=1;" vertex="1" parent="1">
          <mxGeometry x="450" y="685" width="70" height="30" as="geometry" />
        </mxCell>
        <mxCell id="nuo62m4rXIHfGUCH9iXI-14" value="elasticserch" style="rounded=1;whiteSpace=wrap;html=1;" vertex="1" parent="1">
          <mxGeometry x="600" y="685" width="70" height="30" as="geometry" />
        </mxCell>
        <mxCell id="nuo62m4rXIHfGUCH9iXI-15" value="数据&lt;br style=&quot;font-size: 16px;&quot;&gt;存储" style="text;html=1;strokeColor=none;fillColor=none;align=center;verticalAlign=middle;whiteSpace=wrap;rounded=0;fontSize=16;" vertex="1" parent="1">
          <mxGeometry x="140" y="685" width="40" height="30" as="geometry" />
        </mxCell>
        <mxCell id="nuo62m4rXIHfGUCH9iXI-16" value="数据&lt;br style=&quot;font-size: 16px;&quot;&gt;接口" style="text;html=1;strokeColor=none;fillColor=none;align=center;verticalAlign=middle;whiteSpace=wrap;rounded=0;fontSize=16;" vertex="1" parent="1">
          <mxGeometry x="140" y="635" width="40" height="30" as="geometry" />
        </mxCell>
        <mxCell id="nuo62m4rXIHfGUCH9iXI-17" value="数据处理" style="rounded=1;whiteSpace=wrap;html=1;" vertex="1" parent="1">
          <mxGeometry x="310" y="635" width="70" height="30" as="geometry" />
        </mxCell>
        <mxCell id="nuo62m4rXIHfGUCH9iXI-18" value="数据查询" style="rounded=1;whiteSpace=wrap;html=1;" vertex="1" parent="1">
          <mxGeometry x="450" y="635" width="70" height="30" as="geometry" />
        </mxCell>
        <mxCell id="nuo62m4rXIHfGUCH9iXI-19" value="数据安全" style="rounded=1;whiteSpace=wrap;html=1;" vertex="1" parent="1">
          <mxGeometry x="600" y="635" width="70" height="30" as="geometry" />
        </mxCell>
        <mxCell id="nuo62m4rXIHfGUCH9iXI-20" value="资源管理" style="text;html=1;strokeColor=none;fillColor=none;align=center;verticalAlign=middle;whiteSpace=wrap;rounded=0;fontSize=16;" vertex="1" parent="1">
          <mxGeometry x="140" y="585" width="40" height="30" as="geometry" />
        </mxCell>
        <mxCell id="nuo62m4rXIHfGUCH9iXI-21" value="数据交易中心" style="text;html=1;strokeColor=none;fillColor=none;align=center;verticalAlign=middle;whiteSpace=wrap;rounded=0;fontSize=18;" vertex="1" parent="1">
          <mxGeometry x="110" y="155" width="10" height="135" as="geometry" />
        </mxCell>
        <mxCell id="nuo62m4rXIHfGUCH9iXI-22" value="信息展示" style="text;html=1;strokeColor=none;fillColor=none;align=center;verticalAlign=middle;whiteSpace=wrap;rounded=0;fontSize=16;" vertex="1" parent="1">
          <mxGeometry x="150" y="160" width="40" height="30" as="geometry" />
        </mxCell>
        <mxCell id="nuo62m4rXIHfGUCH9iXI-23" value="首页" style="rounded=1;whiteSpace=wrap;html=1;" vertex="1" parent="1">
          <mxGeometry x="150" y="215" width="70" height="30" as="geometry" />
        </mxCell>
        <mxCell id="nuo62m4rXIHfGUCH9iXI-24" value="" style="group" vertex="1" connectable="0" parent="1">
          <mxGeometry x="230" y="160" width="80" height="160" as="geometry" />
        </mxCell>
        <mxCell id="nuo62m4rXIHfGUCH9iXI-25" value="" style="rounded=0;whiteSpace=wrap;html=1;fillColor=#d5e8d4;strokeColor=#006900;dashed=1;" vertex="1" parent="nuo62m4rXIHfGUCH9iXI-24">
          <mxGeometry width="80" height="160" as="geometry" />
        </mxCell>
        <mxCell id="nuo62m4rXIHfGUCH9iXI-26" value="客户管理" style="rounded=1;whiteSpace=wrap;html=1;" vertex="1" parent="nuo62m4rXIHfGUCH9iXI-24">
          <mxGeometry x="5" y="10" width="70" height="30" as="geometry" />
        </mxCell>
        <mxCell id="nuo62m4rXIHfGUCH9iXI-27" value="" style="group" vertex="1" connectable="0" parent="nuo62m4rXIHfGUCH9iXI-24">
          <mxGeometry x="10" y="60" width="60" height="80" as="geometry" />
        </mxCell>
        <mxCell id="nuo62m4rXIHfGUCH9iXI-28" value="客户档案" style="rounded=0;whiteSpace=wrap;html=1;" vertex="1" parent="nuo62m4rXIHfGUCH9iXI-27">
          <mxGeometry width="60" height="20" as="geometry" />
        </mxCell>
        <mxCell id="nuo62m4rXIHfGUCH9iXI-29" value="合作申请" style="rounded=0;whiteSpace=wrap;html=1;" vertex="1" parent="nuo62m4rXIHfGUCH9iXI-27">
          <mxGeometry y="20" width="60" height="20" as="geometry" />
        </mxCell>
        <mxCell id="nuo62m4rXIHfGUCH9iXI-30" value="合作审批" style="rounded=0;whiteSpace=wrap;html=1;" vertex="1" parent="nuo62m4rXIHfGUCH9iXI-27">
          <mxGeometry y="40" width="60" height="20" as="geometry" />
        </mxCell>
        <mxCell id="nuo62m4rXIHfGUCH9iXI-31" value="合作上链" style="rounded=0;whiteSpace=wrap;html=1;" vertex="1" parent="nuo62m4rXIHfGUCH9iXI-27">
          <mxGeometry y="60" width="60" height="20" as="geometry" />
        </mxCell>
        <mxCell id="nuo62m4rXIHfGUCH9iXI-32" value="" style="group" vertex="1" connectable="0" parent="1">
          <mxGeometry x="320" y="160" width="80" height="160" as="geometry" />
        </mxCell>
        <mxCell id="nuo62m4rXIHfGUCH9iXI-33" value="" style="rounded=0;whiteSpace=wrap;html=1;fillColor=#dae8fc;strokeColor=#6c8ebf;dashed=1;" vertex="1" parent="nuo62m4rXIHfGUCH9iXI-32">
          <mxGeometry width="80" height="160" as="geometry" />
        </mxCell>
        <mxCell id="nuo62m4rXIHfGUCH9iXI-34" value="产品管理" style="rounded=1;whiteSpace=wrap;html=1;" vertex="1" parent="nuo62m4rXIHfGUCH9iXI-32">
          <mxGeometry x="5" y="10" width="70" height="30" as="geometry" />
        </mxCell>
        <mxCell id="nuo62m4rXIHfGUCH9iXI-35" value="" style="group" vertex="1" connectable="0" parent="nuo62m4rXIHfGUCH9iXI-32">
          <mxGeometry x="10" y="65" width="60" height="80" as="geometry" />
        </mxCell>
        <mxCell id="nuo62m4rXIHfGUCH9iXI-36" value="产品管理" style="rounded=0;whiteSpace=wrap;html=1;" vertex="1" parent="nuo62m4rXIHfGUCH9iXI-35">
          <mxGeometry width="60" height="20" as="geometry" />
        </mxCell>
        <mxCell id="nuo62m4rXIHfGUCH9iXI-37" value="产品上线" style="rounded=0;whiteSpace=wrap;html=1;" vertex="1" parent="nuo62m4rXIHfGUCH9iXI-35">
          <mxGeometry y="20" width="60" height="20" as="geometry" />
        </mxCell>
        <mxCell id="nuo62m4rXIHfGUCH9iXI-38" value="产品标签" style="rounded=0;whiteSpace=wrap;html=1;" vertex="1" parent="nuo62m4rXIHfGUCH9iXI-35">
          <mxGeometry y="40" width="60" height="20" as="geometry" />
        </mxCell>
        <mxCell id="nuo62m4rXIHfGUCH9iXI-39" value="产品分类" style="rounded=0;whiteSpace=wrap;html=1;" vertex="1" parent="nuo62m4rXIHfGUCH9iXI-35">
          <mxGeometry y="60" width="60" height="20" as="geometry" />
        </mxCell>
        <mxCell id="nuo62m4rXIHfGUCH9iXI-40" value="" style="group" vertex="1" connectable="0" parent="1">
          <mxGeometry x="410" y="160" width="85" height="160" as="geometry" />
        </mxCell>
        <mxCell id="nuo62m4rXIHfGUCH9iXI-41" value="" style="rounded=0;whiteSpace=wrap;html=1;fillColor=#ffe6cc;strokeColor=#d79b00;dashed=1;" vertex="1" parent="nuo62m4rXIHfGUCH9iXI-40">
          <mxGeometry width="85" height="160" as="geometry" />
        </mxCell>
        <mxCell id="nuo62m4rXIHfGUCH9iXI-42" value="需求管理" style="rounded=1;whiteSpace=wrap;html=1;" vertex="1" parent="nuo62m4rXIHfGUCH9iXI-40">
          <mxGeometry x="7.5" y="10" width="70" height="30" as="geometry" />
        </mxCell>
        <mxCell id="nuo62m4rXIHfGUCH9iXI-43" value="需求管理" style="rounded=0;whiteSpace=wrap;html=1;container=0;" vertex="1" parent="nuo62m4rXIHfGUCH9iXI-40">
          <mxGeometry x="12.5" y="65" width="60" height="20" as="geometry" />
        </mxCell>
        <mxCell id="nuo62m4rXIHfGUCH9iXI-44" value="需求申请" style="rounded=0;whiteSpace=wrap;html=1;container=0;" vertex="1" parent="nuo62m4rXIHfGUCH9iXI-40">
          <mxGeometry x="12.5" y="85" width="60" height="20" as="geometry" />
        </mxCell>
        <mxCell id="nuo62m4rXIHfGUCH9iXI-45" value="需求开发" style="rounded=0;whiteSpace=wrap;html=1;container=0;" vertex="1" parent="nuo62m4rXIHfGUCH9iXI-40">
          <mxGeometry x="12.5" y="125" width="60" height="20" as="geometry" />
        </mxCell>
        <mxCell id="nuo62m4rXIHfGUCH9iXI-46" value="需求审批" style="rounded=0;whiteSpace=wrap;html=1;container=0;" vertex="1" parent="nuo62m4rXIHfGUCH9iXI-40">
          <mxGeometry x="12.5" y="105" width="60" height="20" as="geometry" />
        </mxCell>
        <mxCell id="nuo62m4rXIHfGUCH9iXI-47" value="" style="group" vertex="1" connectable="0" parent="1">
          <mxGeometry x="504" y="160" width="85" height="160" as="geometry" />
        </mxCell>
        <mxCell id="nuo62m4rXIHfGUCH9iXI-48" value="" style="rounded=0;whiteSpace=wrap;html=1;fillColor=#f8cecc;strokeColor=#b85450;dashed=1;" vertex="1" parent="nuo62m4rXIHfGUCH9iXI-47">
          <mxGeometry width="85" height="160" as="geometry" />
        </mxCell>
        <mxCell id="nuo62m4rXIHfGUCH9iXI-49" value="交易管理" style="rounded=1;whiteSpace=wrap;html=1;" vertex="1" parent="nuo62m4rXIHfGUCH9iXI-47">
          <mxGeometry x="7.5" y="10" width="70" height="30" as="geometry" />
        </mxCell>
        <mxCell id="nuo62m4rXIHfGUCH9iXI-50" value="产品订购" style="rounded=0;whiteSpace=wrap;html=1;container=0;" vertex="1" parent="nuo62m4rXIHfGUCH9iXI-47">
          <mxGeometry x="12.5" y="55" width="60" height="20" as="geometry" />
        </mxCell>
        <mxCell id="nuo62m4rXIHfGUCH9iXI-51" value="订购审批" style="rounded=0;whiteSpace=wrap;html=1;container=0;" vertex="1" parent="nuo62m4rXIHfGUCH9iXI-47">
          <mxGeometry x="12.5" y="75" width="60" height="20" as="geometry" />
        </mxCell>
        <mxCell id="nuo62m4rXIHfGUCH9iXI-52" value="产品定价" style="rounded=0;whiteSpace=wrap;html=1;container=0;" vertex="1" parent="nuo62m4rXIHfGUCH9iXI-47">
          <mxGeometry x="12.5" y="95" width="60" height="20" as="geometry" />
        </mxCell>
        <mxCell id="nuo62m4rXIHfGUCH9iXI-53" value="交易核算" style="rounded=0;whiteSpace=wrap;html=1;container=0;" vertex="1" parent="nuo62m4rXIHfGUCH9iXI-47">
          <mxGeometry x="12.5" y="115" width="60" height="20" as="geometry" />
        </mxCell>
        <mxCell id="nuo62m4rXIHfGUCH9iXI-54" value="交易对账" style="rounded=0;whiteSpace=wrap;html=1;container=0;" vertex="1" parent="nuo62m4rXIHfGUCH9iXI-47">
          <mxGeometry x="12.5" y="135" width="60" height="20" as="geometry" />
        </mxCell>
        <mxCell id="nuo62m4rXIHfGUCH9iXI-55" value="" style="group" vertex="1" connectable="0" parent="1">
          <mxGeometry x="600" y="160" width="85" height="160" as="geometry" />
        </mxCell>
        <mxCell id="nuo62m4rXIHfGUCH9iXI-56" value="" style="rounded=0;whiteSpace=wrap;html=1;fillColor=#fff2cc;strokeColor=#d6b656;dashed=1;" vertex="1" parent="nuo62m4rXIHfGUCH9iXI-55">
          <mxGeometry width="85" height="160" as="geometry" />
        </mxCell>
        <mxCell id="nuo62m4rXIHfGUCH9iXI-57" value="统计分析" style="rounded=1;whiteSpace=wrap;html=1;" vertex="1" parent="nuo62m4rXIHfGUCH9iXI-55">
          <mxGeometry x="7.5" y="10" width="70" height="30" as="geometry" />
        </mxCell>
        <mxCell id="nuo62m4rXIHfGUCH9iXI-58" value="产品统计分析" style="rounded=0;whiteSpace=wrap;html=1;container=0;" vertex="1" parent="nuo62m4rXIHfGUCH9iXI-55">
          <mxGeometry x="12.5" y="60" width="60" height="35" as="geometry" />
        </mxCell>
        <mxCell id="nuo62m4rXIHfGUCH9iXI-59" value="需求统计分析" style="rounded=0;whiteSpace=wrap;html=1;container=0;" vertex="1" parent="nuo62m4rXIHfGUCH9iXI-55">
          <mxGeometry x="12.5" y="95" width="60" height="30" as="geometry" />
        </mxCell>
        <mxCell id="nuo62m4rXIHfGUCH9iXI-60" value="交易统计分析" style="rounded=0;whiteSpace=wrap;html=1;container=0;" vertex="1" parent="nuo62m4rXIHfGUCH9iXI-55">
          <mxGeometry x="12.5" y="125" width="60" height="30" as="geometry" />
        </mxCell>
        <mxCell id="nuo62m4rXIHfGUCH9iXI-61" value="" style="group" vertex="1" connectable="0" parent="1">
          <mxGeometry x="695" y="160" width="85" height="160" as="geometry" />
        </mxCell>
        <mxCell id="nuo62m4rXIHfGUCH9iXI-62" value="" style="rounded=0;whiteSpace=wrap;html=1;fillColor=#e1d5e7;strokeColor=#9673a6;dashed=1;" vertex="1" parent="nuo62m4rXIHfGUCH9iXI-61">
          <mxGeometry width="85" height="160" as="geometry" />
        </mxCell>
        <mxCell id="nuo62m4rXIHfGUCH9iXI-63" value="系统管理" style="rounded=1;whiteSpace=wrap;html=1;" vertex="1" parent="nuo62m4rXIHfGUCH9iXI-61">
          <mxGeometry x="7.5" y="10" width="70" height="30" as="geometry" />
        </mxCell>
        <mxCell id="nuo62m4rXIHfGUCH9iXI-64" value="用户管理" style="rounded=0;whiteSpace=wrap;html=1;container=0;" vertex="1" parent="nuo62m4rXIHfGUCH9iXI-61">
          <mxGeometry x="12.5" y="55" width="60" height="20" as="geometry" />
        </mxCell>
        <mxCell id="nuo62m4rXIHfGUCH9iXI-65" value="菜单管理" style="rounded=0;whiteSpace=wrap;html=1;container=0;" vertex="1" parent="nuo62m4rXIHfGUCH9iXI-61">
          <mxGeometry x="12.5" y="75" width="60" height="20" as="geometry" />
        </mxCell>
        <mxCell id="nuo62m4rXIHfGUCH9iXI-66" value="角色管理" style="rounded=0;whiteSpace=wrap;html=1;container=0;" vertex="1" parent="nuo62m4rXIHfGUCH9iXI-61">
          <mxGeometry x="12.5" y="95" width="60" height="20" as="geometry" />
        </mxCell>
        <mxCell id="nuo62m4rXIHfGUCH9iXI-67" value="权限管理" style="rounded=0;whiteSpace=wrap;html=1;container=0;" vertex="1" parent="nuo62m4rXIHfGUCH9iXI-61">
          <mxGeometry x="12.5" y="115" width="60" height="20" as="geometry" />
        </mxCell>
        <mxCell id="nuo62m4rXIHfGUCH9iXI-68" value="日志管理" style="rounded=0;whiteSpace=wrap;html=1;container=0;" vertex="1" parent="nuo62m4rXIHfGUCH9iXI-61">
          <mxGeometry x="12.5" y="135" width="60" height="20" as="geometry" />
        </mxCell>
        <mxCell id="nuo62m4rXIHfGUCH9iXI-69" value="区块链" style="text;html=1;strokeColor=none;fillColor=none;align=center;verticalAlign=middle;whiteSpace=wrap;rounded=0;fontSize=16;" vertex="1" parent="1">
          <mxGeometry x="140" y="395" width="40" height="30" as="geometry" />
        </mxCell>
        <mxCell id="nuo62m4rXIHfGUCH9iXI-70" value="智能合约" style="rounded=1;whiteSpace=wrap;html=1;" vertex="1" parent="1">
          <mxGeometry x="250" y="395" width="70" height="30" as="geometry" />
        </mxCell>
        <mxCell id="nuo62m4rXIHfGUCH9iXI-71" value="可信账本" style="rounded=1;whiteSpace=wrap;html=1;" vertex="1" parent="1">
          <mxGeometry x="350" y="395" width="70" height="30" as="geometry" />
        </mxCell>
        <mxCell id="nuo62m4rXIHfGUCH9iXI-72" value="隐私计算" style="text;html=1;strokeColor=none;fillColor=none;align=center;verticalAlign=middle;whiteSpace=wrap;rounded=0;fontSize=16;" vertex="1" parent="1">
          <mxGeometry x="140" y="445" width="40" height="30" as="geometry" />
        </mxCell>
        <mxCell id="nuo62m4rXIHfGUCH9iXI-73" value="联邦学习" style="rounded=1;whiteSpace=wrap;html=1;" vertex="1" parent="1">
          <mxGeometry x="250" y="445" width="70" height="30" as="geometry" />
        </mxCell>
        <mxCell id="nuo62m4rXIHfGUCH9iXI-74" value="隐私求交" style="rounded=1;whiteSpace=wrap;html=1;" vertex="1" parent="1">
          <mxGeometry x="350" y="445" width="70" height="30" as="geometry" />
        </mxCell>
        <mxCell id="nuo62m4rXIHfGUCH9iXI-75" value="同态加密" style="rounded=1;whiteSpace=wrap;html=1;" vertex="1" parent="1">
          <mxGeometry x="450" y="445" width="70" height="30" as="geometry" />
        </mxCell>
        <mxCell id="nuo62m4rXIHfGUCH9iXI-76" value="零知识证明" style="rounded=1;whiteSpace=wrap;html=1;" vertex="1" parent="1">
          <mxGeometry x="550" y="445" width="70" height="30" as="geometry" />
        </mxCell>
        <mxCell id="nuo62m4rXIHfGUCH9iXI-77" value="数据上链" style="rounded=1;whiteSpace=wrap;html=1;" vertex="1" parent="1">
          <mxGeometry x="450" y="395" width="70" height="30" as="geometry" />
        </mxCell>
        <mxCell id="nuo62m4rXIHfGUCH9iXI-78" value="数据朔源" style="rounded=1;whiteSpace=wrap;html=1;" vertex="1" parent="1">
          <mxGeometry x="540" y="395" width="70" height="30" as="geometry" />
        </mxCell>
        <mxCell id="nuo62m4rXIHfGUCH9iXI-79" value="去中心化" style="rounded=1;whiteSpace=wrap;html=1;" vertex="1" parent="1">
          <mxGeometry x="640" y="395" width="70" height="30" as="geometry" />
        </mxCell>
      </root>
    </mxGraphModel>
  </diagram>
</mxfile>
